<?xml version="1.0" encoding="UTF-8"?>
<!DOCTYPE svg PUBLIC "-//W3C//DTD SVG 1.1//EN" "http://www.w3.org/Graphics/SVG/1.1/DTD/svg11.dtd">
<!-- Creator: CorelDRAW X7 -->
<svg xmlns="http://www.w3.org/2000/svg" xml:space="preserve" width="38.46mm" height="33.798mm" version="1.1" style="shape-rendering:geometricPrecision; text-rendering:geometricPrecision; image-rendering:optimizeQuality; fill-rule:evenodd; clip-rule:evenodd"
viewBox="0 0 884 777"
 xmlns:xlink="http://www.w3.org/1999/xlink">
 <defs>
  <style type="text/css">
   <![CDATA[
    .fil0 {fill:white}
   ]]>
  </style>
 </defs>
 <g id="Capa_x0020_1">
  <metadata id="CorelCorpID_0Corel-Layer"/>
  <polygon class="fil0" points="655,522 695,455 845,455 884,388 783,214 626,214 580,134 536,134 536,80 612,80 657,161 752,161 659,0 469,0 469,228 549,228 581,281 469,281 469,388 571,388 617,308 742,308 773,362 648,362 601,442 469,442 469,643 636,643 605,697 469,697 469,777 659,777 814,509 725,509 686,576 536,576 536,522 "/>
  <polygon class="fil0" points="229,522 189,455 39,455 0,388 101,214 258,214 304,134 348,134 348,80 272,80 227,161 132,161 225,0 415,0 415,228 335,228 303,281 415,281 415,388 313,388 267,308 142,308 111,362 236,362 283,442 415,442 415,643 248,643 279,697 415,697 415,777 225,777 70,509 159,509 198,576 348,576 348,522 "/>
 </g>
</svg>
