<?xml version="1.0" encoding="UTF-8"?>
<!DOCTYPE svg PUBLIC "-//W3C//DTD SVG 1.1//EN" "http://www.w3.org/Graphics/SVG/1.1/DTD/svg11.dtd">
<!-- Creator: CorelDRAW X7 -->
<svg xmlns="http://www.w3.org/2000/svg" xml:space="preserve" width="50px" height="50px" version="1.1" style="shape-rendering:geometricPrecision; text-rendering:geometricPrecision; image-rendering:optimizeQuality; fill-rule:evenodd; clip-rule:evenodd"
viewBox="0 0 2524 1060"
 xmlns:xlink="http://www.w3.org/1999/xlink">
 <defs>
  <style type="text/css">
   <![CDATA[
    .fil0 {fill:#FEFEFE}
    .fil1 {fill:#FEFEFE;fill-rule:nonzero}
   ]]>
  </style>
 </defs>
 <g id="Capa_x0020_1">
  <metadata id="CorelCorpID_0Corel-Layer"/>
  <polygon class="fil0" points="0,14 268,709 444,709 713,15 552,15 359,541 164,15 "/>
  <polygon class="fil0" points="1303,709 1301,253 1631,709 1769,709 1769,15 1620,15 1620,444 1313,15 1158,15 1158,709 "/>
  <path class="fil0" d="M1037 15l-190 0 -264 694 169 0 40 -128 300 0 47 128 164 0 -266 -694zm-95 143l-110 302 217 0 -107 -302z"/>
  <path class="fil0" d="M2168 715c-197,0 -357,-160 -357,-357 0,-198 160,-358 357,-358 197,0 356,160 356,358 0,197 -159,357 -356,357zm2 -117c-118,0 -213,-105 -213,-234 0,-129 95,-233 213,-233 117,0 212,104 212,233 0,129 -95,234 -212,234z"/>
  <path class="fil1" d="M154 1046l69 -179 26 0 73 179 -27 0 -21 -54 -75 0 -20 54 -25 0zm52 -73l61 0 -19 -50c-6,-15 -10,-27 -13,-37 -2,11 -6,23 -10,34l-19 53z"/>
  <path id="1" class="fil1" d="M341 1046l0 -179 79 0c16,0 28,2 36,5 9,3 15,9 20,17 5,8 8,17 8,27 0,13 -4,23 -13,32 -8,9 -20,14 -38,17 7,3 11,6 15,9 7,6 13,14 19,23l31 49 -29 0 -24 -37c-7,-11 -13,-19 -17,-25 -5,-5 -9,-9 -12,-12 -4,-2 -7,-4 -11,-4 -2,-1 -7,-1 -13,-1l-27 0 0 79 -24 0zm24 -100l50 0c11,0 20,-1 26,-3 6,-2 10,-6 14,-11 3,-5 4,-10 4,-16 0,-8 -3,-15 -9,-21 -6,-5 -16,-8 -29,-8l-56 0 0 59z"/>
  <path id="2" class="fil1" d="M656 1027c11,7 21,13 31,16l-7 17c-13,-5 -26,-12 -39,-22 -13,7 -28,11 -44,11 -16,0 -31,-4 -44,-12 -13,-7 -23,-18 -30,-32 -7,-15 -11,-31 -11,-48 0,-18 4,-34 11,-48 7,-15 17,-26 31,-33 13,-8 27,-12 44,-12 16,0 31,4 44,12 14,8 24,19 31,33 7,14 10,30 10,48 0,14 -2,28 -7,39 -4,12 -11,22 -20,31zm-52 -30c14,4 25,9 34,17 14,-13 21,-32 21,-57 0,-15 -3,-27 -8,-38 -5,-11 -12,-19 -21,-25 -10,-6 -20,-9 -32,-9 -18,0 -32,6 -44,18 -11,12 -17,30 -17,54 0,23 5,41 17,53 11,13 26,19 44,19 8,0 16,-2 24,-5 -8,-5 -15,-8 -24,-10l6 -17z"/>
  <path id="3" class="fil1" d="M832 867l24 0 0 104c0,18 -2,32 -6,42 -4,11 -12,20 -22,26 -11,7 -25,10 -42,10 -17,0 -30,-3 -41,-9 -11,-5 -18,-14 -23,-25 -4,-11 -7,-26 -7,-44l0 -104 24 0 0 104c0,15 2,27 5,34 2,7 7,13 14,17 7,4 16,6 26,6 17,0 30,-4 37,-12 7,-8 11,-23 11,-45l0 -104z"/>
  <polygon id="4" class="fil1" points="899,1046 899,867 923,867 923,1046 "/>
  <polygon id="5" class="fil1" points="1010,1046 1010,888 951,888 951,867 1093,867 1093,888 1034,888 1034,1046 "/>
  <polygon id="6" class="fil1" points="1118,1046 1118,867 1247,867 1247,888 1141,888 1141,943 1240,943 1240,964 1141,964 1141,1025 1251,1025 1251,1046 "/>
  <path id="7" class="fil1" d="M1411 983l24 6c-5,20 -14,35 -27,45 -13,10 -28,15 -47,15 -19,0 -35,-4 -47,-12 -12,-8 -21,-19 -27,-34 -7,-15 -10,-31 -10,-48 0,-18 4,-34 11,-48 7,-14 17,-25 30,-32 13,-7 28,-11 43,-11 18,0 33,5 45,14 13,9 21,22 26,38l-23 6c-4,-13 -10,-23 -18,-29 -8,-6 -18,-8 -30,-8 -14,0 -25,3 -34,9 -10,7 -16,16 -20,27 -4,11 -5,22 -5,34 0,15 2,29 6,40 5,11 11,20 21,25 9,6 19,9 30,9 13,0 24,-4 34,-12 9,-7 15,-19 18,-34z"/>
  <polygon id="8" class="fil1" points="1510,1046 1510,888 1451,888 1451,867 1592,867 1592,888 1533,888 1533,1046 "/>
  <path id="9" class="fil1" d="M1609 959c0,-30 8,-53 24,-70 16,-16 37,-25 62,-25 17,0 31,4 45,12 13,8 23,19 30,33 7,14 11,30 11,48 0,18 -4,34 -11,49 -8,14 -18,25 -32,32 -13,7 -27,11 -43,11 -17,0 -32,-4 -45,-12 -13,-8 -23,-19 -30,-33 -7,-14 -11,-29 -11,-45zm25 0c0,22 6,39 17,51 12,13 26,19 44,19 18,0 32,-6 44,-19 11,-12 17,-30 17,-53 0,-15 -2,-27 -7,-38 -5,-11 -12,-19 -22,-25 -9,-6 -20,-9 -32,-9 -16,0 -31,6 -43,17 -12,11 -18,31 -18,57zm43 -103l16 -34 29 0 -27 34 -18 0z"/>
  <polygon id="10" class="fil1" points="1811,1046 1811,867 1835,867 1929,1008 1929,867 1952,867 1952,1046 1927,1046 1833,906 1833,1046 "/>
  <polygon id="11" class="fil1" points="1995,1046 1995,867 2019,867 2019,1046 "/>
  <path id="12" class="fil1" d="M2188 983l24 6c-5,20 -14,35 -27,45 -13,10 -29,15 -47,15 -19,0 -35,-4 -47,-12 -12,-8 -21,-19 -28,-34 -6,-15 -9,-31 -9,-48 0,-18 3,-34 11,-48 7,-14 17,-25 30,-32 13,-7 27,-11 43,-11 18,0 33,5 45,14 12,9 21,22 26,38l-23 6c-5,-13 -11,-23 -19,-29 -7,-6 -17,-8 -29,-8 -14,0 -25,3 -35,9 -9,7 -15,16 -19,27 -4,11 -6,22 -6,34 0,15 3,29 7,40 4,11 11,20 21,25 9,6 19,9 30,9 13,0 24,-4 33,-12 10,-7 16,-19 19,-34z"/>
  <path id="13" class="fil1" d="M2234 959c0,-30 8,-53 24,-70 16,-16 36,-25 61,-25 17,0 32,4 45,12 13,8 23,19 30,33 7,14 11,30 11,48 0,18 -4,34 -11,49 -7,14 -18,25 -31,32 -14,7 -28,11 -44,11 -17,0 -32,-4 -45,-12 -13,-8 -23,-19 -30,-33 -7,-14 -10,-29 -10,-45zm24 0c0,22 6,39 18,51 11,13 26,19 43,19 18,0 33,-6 44,-19 12,-12 17,-30 17,-53 0,-15 -2,-27 -7,-38 -5,-11 -12,-19 -22,-25 -9,-6 -20,-9 -31,-9 -17,0 -32,6 -44,17 -12,11 -18,31 -18,57z"/>
 </g>
</svg>
